<svg xmlns="http://www.w3.org/2000/svg" viewBox="0 0 64 64" role="img" aria-label="AI Home Lab">
  <defs>
    <linearGradient id="ice" x1="8" y1="8" x2="52" y2="46" gradientUnits="userSpaceOnUse">
      <stop stop-color="#eff6ff" />
      <stop offset="0.48" stop-color="#b9c9e8" />
      <stop offset="1" stop-color="#6f82a8" />
    </linearGradient>
    <linearGradient id="gold" x1="18" y1="16" x2="46" y2="54" gradientUnits="userSpaceOnUse">
      <stop stop-color="#f4d36b" />
      <stop offset="0.52" stop-color="#d8a937" />
      <stop offset="1" stop-color="#8a641f" />
    </linearGradient>
    <radialGradient id="glow" cx="0" cy="0" r="1" gradientTransform="matrix(0 30 -30 0 32 30)" gradientUnits="userSpaceOnUse">
      <stop stop-color="#b9c9e8" stop-opacity="0.38" />
      <stop offset="1" stop-color="#b9c9e8" stop-opacity="0" />
    </radialGradient>
  </defs>
  <rect width="64" height="64" rx="14" fill="#0f0f0f" />
  <rect x="1" y="1" width="62" height="62" rx="13" fill="none" stroke="#24304a" stroke-width="2" />
  <path d="M7 20h13l6-9 6 12 7-15 7 16h11v10H7z" fill="url(#ice)" opacity="0.82" />
  <path d="M32 8l2.2 6.7 7 .1-5.6 4.1 2.1 6.7L32 21.5l-5.7 4.1 2.1-6.7-5.6-4.1 7-.1z" fill="url(#gold)" />
  <path d="M32 18l20 34H12z" fill="#090909" stroke="url(#gold)" stroke-width="4" stroke-linejoin="round" />
  <path d="M32 27l10.5 18h-21z" fill="url(#glow)" stroke="#b9c9e8" stroke-width="1.5" stroke-linejoin="round" />
  <path d="M18 53h28" stroke="#f4d36b" stroke-width="2" stroke-linecap="round" opacity="0.9" />
</svg>
