<svg xmlns="http://www.w3.org/2000/svg" viewBox="0 0 256 256" role="img" aria-label="AI Home Lab logo">
  <defs>
    <linearGradient id="frame" x1="36" y1="24" x2="220" y2="232" gradientUnits="userSpaceOnUse">
      <stop stop-color="#f4d36b" />
      <stop offset="0.46" stop-color="#d8a937" />
      <stop offset="1" stop-color="#8a641f" />
    </linearGradient>
    <linearGradient id="night" x1="64" y1="58" x2="190" y2="214" gradientUnits="userSpaceOnUse">
      <stop stop-color="#24304a" />
      <stop offset="0.5" stop-color="#17191f" />
      <stop offset="1" stop-color="#090909" />
    </linearGradient>
    <radialGradient id="coreGlow" cx="0" cy="0" r="1" gradientTransform="matrix(0 82 -82 0 128 132)" gradientUnits="userSpaceOnUse">
      <stop stop-color="#c6d8f5" stop-opacity="0.48" />
      <stop offset="0.46" stop-color="#7f91b8" stop-opacity="0.16" />
      <stop offset="1" stop-color="#0f0f0f" stop-opacity="0" />
    </radialGradient>
    <filter id="softGlow" x="-30%" y="-30%" width="160%" height="160%">
      <feGaussianBlur stdDeviation="5" result="blur" />
      <feMerge>
        <feMergeNode in="blur" />
        <feMergeNode in="SourceGraphic" />
      </feMerge>
    </filter>
  </defs>

  <rect width="256" height="256" rx="52" fill="#0f0f0f" />
  <path d="M128 16 220 70v116l-92 54-92-54V70z" fill="url(#frame)" />
  <path d="M128 28 208 76v103l-80 47-80-47V76z" fill="#080808" />
  <path d="M128 34 201 79v96l-73 43-73-43V79z" fill="url(#night)" stroke="#24304a" stroke-width="2" />

  <path d="M78 129 128 82l50 47" fill="none" stroke="url(#frame)" stroke-width="10" stroke-linecap="round" stroke-linejoin="round" />
  <path d="M91 128v46h74v-46" fill="#0f0f0f" stroke="#c6d8f5" stroke-width="6" stroke-linejoin="round" />
  <path d="M109 174v-33h38v33" fill="#151923" stroke="#7f91b8" stroke-width="4" stroke-linejoin="round" />

  <circle cx="128" cy="130" r="50" fill="url(#coreGlow)" />
  <path d="M128 103 154 148h-52z" fill="#070707" stroke="url(#frame)" stroke-width="7" stroke-linejoin="round" filter="url(#softGlow)" />
  <path d="M128 119 141 142h-26z" fill="#c6d8f5" opacity="0.9" />

  <path d="M83 171h90" stroke="#f4d36b" stroke-width="5" stroke-linecap="round" opacity="0.82" />
  <path d="M94 123 128 91l34 32" fill="none" stroke="#c6d8f5" stroke-width="2.5" stroke-linecap="round" stroke-linejoin="round" opacity="0.5" />
  <rect x="1.5" y="1.5" width="253" height="253" rx="50.5" fill="none" stroke="#ffffff" stroke-opacity="0.08" stroke-width="3" />
</svg>
